<svg width="14" height="14" viewBox="0 0 14 14" fill="none" xmlns="http://www.w3.org/2000/svg">
<path d="M12.7141 11.7857L10.117 9.18749C10.8957 8.17274 11.2592 6.89979 11.1339 5.62686C11.0086 4.35393 10.4037 3.17633 9.44206 2.33295C8.48041 1.48957 7.23395 1.04356 5.95555 1.0854C4.67714 1.12724 3.46252 1.65379 2.55806 2.55825C1.65361 3.4627 1.12706 4.67733 1.08522 5.95573C1.04338 7.23414 1.48939 8.48059 2.33277 9.44225C3.17615 10.4039 4.35374 11.0087 5.62668 11.1341C6.89961 11.2594 8.17256 10.8959 9.1873 10.1172L11.7866 12.717C11.8476 12.7781 11.9201 12.8265 11.9999 12.8595C12.0796 12.8926 12.1651 12.9096 12.2514 12.9096C12.3378 12.9096 12.4233 12.8926 12.503 12.8595C12.5828 12.8265 12.6552 12.7781 12.7163 12.717C12.7773 12.656 12.8258 12.5835 12.8588 12.5037C12.8918 12.424 12.9088 12.3385 12.9088 12.2522C12.9088 12.1658 12.8918 12.0804 12.8588 12.0006C12.8258 11.9208 12.7773 11.8484 12.7163 11.7873L12.7141 11.7857ZM2.40605 6.12499C2.40605 5.38949 2.62415 4.6705 3.03278 4.05896C3.4414 3.44741 4.02219 2.97077 4.7017 2.68931C5.38121 2.40785 6.12893 2.3342 6.8503 2.47769C7.57166 2.62118 8.23428 2.97536 8.75436 3.49543C9.27443 4.01551 9.62861 4.67813 9.7721 5.39949C9.91559 6.12086 9.84194 6.86858 9.56048 7.54809C9.27902 8.2276 8.80237 8.80839 8.19083 9.21701C7.57928 9.62564 6.8603 9.84374 6.1248 9.84374C5.13884 9.84272 4.19355 9.4506 3.49637 8.75342C2.79919 8.05624 2.40707 7.11095 2.40605 6.12499Z" fill="white"/>
</svg>
